<?xml version="1.0" standalone="no"?>
<!DOCTYPE svg PUBLIC "-//W3C//DTD SVG 20010904//EN"
 "http://www.w3.org/TR/2001/REC-SVG-20010904/DTD/svg10.dtd">
<svg version="1.0" xmlns="http://www.w3.org/2000/svg"
 width="500.000000pt" height="500.000000pt" viewBox="0 0 500.000000 500.000000"
 preserveAspectRatio="xMidYMid meet">

<g transform="translate(0.000000,500.000000) scale(0.100000,-0.100000)"
fill="#000000" stroke="none">
<path d="M0 2500 l0 -2500 2500 0 2500 0 0 2500 0 2500 -2500 0 -2500 0 0
-2500z m2910 1679 c107 -29 185 -74 260 -149 120 -119 170 -255 170 -465 0
-194 -39 -313 -145 -446 -87 -108 -224 -182 -385 -208 -36 -6 -131 -11 -212
-11 l-148 0 0 -370 0 -370 -240 0 -240 0 0 1020 0 1020 433 0 c407 0 437 -1
507 -21z m-1250 -1304 l0 -785 390 0 390 0 0 -235 0 -235 -625 0 -625 0 0
1020 0 1020 235 0 235 0 0 -785z m1920 -63 c237 -79 380 -274 380 -517 0 -145
-52 -277 -148 -375 l-57 -58 71 -65 c120 -111 174 -242 174 -422 0 -173 -47
-292 -161 -406 -45 -46 -88 -77 -140 -102 -141 -69 -141 -69 -681 -74 l-488
-5 0 1027 0 1026 493 -3 c475 -4 494 -4 557 -26z"/>
<path d="M2450 3550 l0 -200 133 0 c118 0 138 3 177 23 66 32 93 86 93 186 1
93 -19 134 -79 168 -35 21 -53 23 -181 23 l-143 0 0 -200z"/>
<path d="M3002 2228 l3 -163 170 0 c188 0 227 10 269 68 28 38 34 142 11 186
-30 59 -74 71 -278 71 l-177 0 2 -162z"/>
<path d="M3000 1431 l0 -191 178 0 c97 0 195 5 217 11 86 24 134 110 115 208
-13 70 -35 104 -84 133 -38 22 -53 23 -233 26 l-193 4 0 -191z"/>
</g>
</svg>
